<?xml version="1.0"?>
<svg xmlns="http://www.w3.org/2000/svg" xmlns:xlink="http://www.w3.org/1999/xlink" xmlns:svgjs="http://svgjs.com/svgjs" version="1.1" width="512" height="512" x="0" y="0" viewBox="0 0 58 59" style="enable-background:new 0 0 512 512" xml:space="preserve" class=""><g><g xmlns="http://www.w3.org/2000/svg" id="Page-1" fill="none" fill-rule="evenodd"><g id="013---Happy" fill-rule="nonzero" transform="translate(-1)"><path id="Shape" d="m20.57 1.58h-.01c-3.7402855-1.74883672-7.9959672-2.04953118-11.945-.844-.38784609.11102059-.67099785.44421635-.71799479.84489259s.15136642.79035087.50299479.98810741c1.42535413.81743862 2.6541934 1.93738911 3.6 3.281 0 0-6.2-1.789-10.263 4.75-.16751889.2759042-.19063874.6159706-.06200411.9120092s.39300529.5111846.70900411.5769908c1.14643561.1779324 2.19888244.7386969 2.986 1.591-2.93339954 4.7028294-4.45051138 10.1508925-4.37 15.693.06663003 10.3607021 5.6555675 19.898839 14.6615137 25.0214867 9.0059463 5.1226478 20.0606838 5.0515544 29-.1865 8.9393162-5.2380543 14.4051163-14.8472846 14.3384863-25.2079867.010437-5.4156523-1.504-10.7248457-4.37-15.32.7872653-.8519341 1.8396953-1.4123373 2.986-1.59.3159988-.0658062.5803695-.2809522.7090041-.5769908s.1055148-.636105-.0620041-.9120092c-4.063-6.54-10.263-4.751-10.263-4.751.9458066-1.34361089 2.1746459-2.46356138 3.6-3.281.3517453-.19710324.550708-.58616949.5045988-.98672959-.0461092-.40056011-.3282689-.73424348-.7155988-.84627041-3.9502597-1.20656023-8.2075621-.90585195-11.949.844h-.01c-6.110183-2.10665058-12.749817-2.10665058-18.86 0h-.01" fill="#daa829" data-original="#f0c419" style="" class=""/><path id="Shape" d="m28 15.07v.13c0 4.97-4.03 10.8-9 10.8-4.9705627 0-9-4.0294373-9-9s4.0294373-9 9-9c.3741425-.00022492.7480229.01980439 1.12.06 4.29.47 7.65 3.59 7.87 6.8 0 .07.01.14.01.21z" fill="#ecf0f1" data-original="#ecf0f1" style="" class=""/><path id="Shape" d="m28 15.07c-.0350643 3.7429641-3.008516 6.7960238-6.7492479 6.9299449s-6.9248952-2.6986912-7.2275287-6.4295655 2.3833652-7.03965045 6.0967766-7.5103794c4.711.516 7.88 4.083 7.88 7.01z" fill="#2fa8cc" data-original="#2fa8cc" style="" class=""/><circle id="Oval" cx="21" cy="15" fill="#35495e" r="3" data-original="#35495e" style=""/><path id="Shape" d="m50 17c0 4.9705627-4.0294373 9-9 9-4.97 0-9-5.83-9-10.8v-.13c0-.07.01-.14.01-.21.22-3.21 3.58-6.33 7.87-6.8.3719771-.04019561.7458575-.06022492 1.12-.06 4.9705627 0 9 4.0294373 9 9z" fill="#ecf0f1" data-original="#ecf0f1" style="" class=""/><path id="Shape" d="m30 51c22.218 0 24.287-17 24.2-24.021-.0064199-.4097357-.26217-.7740883-.6453366-.9193741-.3831665-.1452858-.8161945-.0420983-1.0926634.2603741-2.441 2.666-8.438 6.68-22.462 6.68s-20.021-4.014-22.457-6.68c-.27646887-.3024724-.7094969-.4056599-1.09266343-.2603741s-.63891667.5096384-.64533657.9193741c-.092 7.021 1.977 24.021 24.195 24.021z" fill="#802d40" data-original="#802d40" style=""/><path id="Shape" d="m20.63 32.28c-1.1852993 1.5757499-2.0391339 3.3752658-2.51 5.29-.244076.7831514-.9338967 1.3436341-1.750427 1.4222306-.8165304.0785965-1.6005953-.3400148-1.989573-1.0622306-1.1979088-2.4167252-1.6371256-5.1391719-1.26-7.81 2.4020042 1.0344469 4.9254516 1.760232 7.51 2.16z" fill="#ecf0f1" data-original="#ecf0f1" style="" class=""/><path id="Shape" d="m45.62 37.93c-.3889777.7222158-1.1730426 1.1408271-1.989573 1.0622306-.8165303-.0785965-1.506351-.6390792-1.750427-1.4222306-.4708661-1.9147342-1.3247007-3.7142501-2.51-5.29 2.5845484-.399768 5.1079958-1.1255531 7.51-2.16.3771256 2.6708281-.0620912 5.3932748-1.26 7.81z" fill="#ecf0f1" data-original="#ecf0f1" style="" class=""/><path id="Shape" d="m42.66 48.48c-3.9759577 1.7839871-8.3039578 2.6454848-12.66 2.52-4.3560422.1254848-8.6840423-.7360129-12.66-2.52 1.35-4.86 6.5-8.48 12.66-8.48s11.31 3.62 12.66 8.48z" fill="#ff5364" data-original="#ff5364" style=""/><path id="Shape" d="m46 15c.0125043 2.5008591-1.3101337 4.8184192-3.4696891 6.0796778s-4.8279403 1.2746006-7 .035c-2.1720597-1.2396005-3.5178066-3.5438187-3.5303109-6.0446778 0-2.929 3.171-6.494 7.88-7.01 3.497645.44008563 6.1208601 3.4147773 6.12 6.94z" fill="#2fa8cc" data-original="#2fa8cc" style="" class=""/><circle id="Oval" cx="39" cy="15" fill="#35495e" r="3" data-original="#35495e" style=""/><g fill="#ecf0f1"><circle id="Oval" cx="18" cy="12" r="2" fill="#ecf0f1" data-original="#ecf0f1" style="" class=""/><circle id="Oval" cx="36" cy="12" r="2" fill="#ecf0f1" data-original="#ecf0f1" style="" class=""/></g></g></g></g></svg>
