<?xml version="1.0"?>
<svg xmlns="http://www.w3.org/2000/svg" xmlns:xlink="http://www.w3.org/1999/xlink" xmlns:svgjs="http://svgjs.com/svgjs" version="1.1" width="512" height="512" x="0" y="0" viewBox="0 0 58 59" style="enable-background:new 0 0 512 512" xml:space="preserve" class=""><g><g xmlns="http://www.w3.org/2000/svg" id="Page-1" fill="none" fill-rule="evenodd"><g id="032---Crying" fill-rule="nonzero"><path id="Shape" d="m58 29c.0115182 5.3544894-1.4744278 10.6055249-4.29 15.16.05.16.11.31.17.47.8 2.25 2.01 5.65.09 9.08-1.1834608 1.9979944-3.1296136 3.427821-5.39 3.96-.8699161.2179319-1.763202.3287531-2.66.33-2.2473896-.0067574-4.436333-.7165905-6.26-2.03-6.8455041 2.7100825-14.4670424 2.706506-21.31-.01-1.8236268 1.3221265-4.017531 2.0359326-6.27 2.04-.896798-.0012469-1.7900839-.1120681-2.66-.33-2.26038638-.532179-4.20653924-1.9620056-5.39-3.96-1.92-3.43-.71-6.83.09-9.08.06-.16.12-.31.17-.47-5.7487453-9.3550121-5.71777343-21.1552938.08-30.48-.7872653-.8519341-1.83969533-1.4123373-2.986-1.59-.31631015-.065688-.58096711-.2809991-.70964093-.5773267-.12867382-.2963277-.1053122-.6367045.06264093-.9126733 4.063-6.539 10.263-4.75 10.263-4.75-.9455729-1.34408171-2.17444671-2.46440497-3.6-3.282-.3504313-.19742679-.54847259-.58559279-.50264206-.98519133.04583053-.39959855.32661194-.73284769.71264206-.84580867 3.9504437-1.20712998 8.208148-.90677478 11.95.843h.01c6.110183-2.10665058 12.749817-2.10665058 18.86 0h.01c3.7409878-1.74901324 7.9974763-2.04935808 11.947-.843.3860301.11296098.6668115.44621012.7126421.84580867.0458305.39959854-.1522108.78776454-.5026421.98519133-1.4244669.81794926-2.6522897 1.93824798-3.597 3.282 0 0 6.2-1.789 10.263 4.75.1675189.2759042.1906387.6159706.0620041.9120092s-.3930053.5111846-.7090041.5769908c-1.1463047.1776627-2.1987347.7380659-2.986 1.59 2.8661806 4.5954426 4.3806248 9.9050079 4.37 15.321z" fill="#f42b37" data-original="#cb8252" style="" class=""/><path id="Shape" d="m26 19c-.2967326-.0001113-.5780911-.1319981-.768-.36-4.424-5.308-11.488-1.892-11.786-1.745-.4942948.2465951-1.0949048.0457948-1.3415-.4485-.2465951-.4942949-.0457948-1.0949048.4485-1.3415.087-.043 8.772-4.279 14.215 2.255.2482602.2980576.3017521.7127992.1372432 1.0640944-.164509.3512951-.5173367.5757602-.9052432.5759056z" fill="#35495e" data-original="#35495e" style="" class=""/><path id="Shape" d="m32 19c-.3879065-.0001454-.7407342-.2246105-.9052432-.5759056-.1645089-.3512952-.111017-.7660368.1372432-1.0640944 5.443-6.534 14.128-2.3 14.215-2.255.4942948.2465952.6950951.8472051.4485 1.3415-.2465952.4942948-.8472052.6950951-1.3415.4485-.3-.148-7.362-3.563-11.786 1.745-.1899089.2280019-.4712674.3598887-.768.36z" fill="#35495e" data-original="#35495e" style="" class=""/><path id="Shape" d="m24.171 12.989c-2.6716422-.1127467-5.1789248-1.3208141-6.932-3.34-.2322226-.27170048-.3018547-.64665138-.1826665-.98361232s.4090892-.58473954.7605-.65.7109439.06191184.9431665.33361232c.153.177 3.583 4.072 7.816 2.088.498009-.2228669 1.0827416-.0054103 1.3141113.4887058.2313696.4941161.0239667 1.0824898-.4661113 1.3222942-1.016064.4848951-2.1271668.7379929-3.253.741z" fill="#7e4824" data-original="#805333" style="" class=""/><path id="Shape" d="m33.829 12.989c-1.1258216-.0021271-2.2370439-.2549105-3.253-.74-.490078-.2398044-.6974809-.8281781-.4661113-1.3222942.2313697-.4941161.8161023-.7115727 1.3141113-.4887058 4.237 1.984 7.673-1.922 7.817-2.089.3589851-.41973637.9902636-.46898503 1.41-.10999996s.4689851.99026355.11 1.40999996c-1.7530752 2.0191859-4.2603578 3.2272533-6.932 3.34z" fill="#7e4824" data-original="#805333" style="" class=""/><path id="Shape" d="m50.49 51.75c-.6481853 1.0381358-1.6856093 1.7729778-2.88 2.04-2.2947479.5692743-4.7211887-.0760156-6.43-1.71-1.5133622-1.5022109-3.263357-2.7454505-5.18-3.68l-.06-.03c-2.2051931-.8800865-4.5664823-1.3019883-6.94-1.24-2.3735177-.0619883-4.7348069.3599135-6.94 1.24l-.06.03c-1.916643.9345495-3.6666378 2.1777891-5.18 3.68-1.7088113 1.6339844-4.1352521 2.2792743-6.43 1.71-1.19439073-.2670222-2.23181471-1.0018642-2.88-2.04-1.23-2.2.07-4.73.75-6.87 1.19-3.71 2.86-7.25 4.4-10.82 4.34-10.06 16.34-10.06 16.34-10.06s12 0 16.34 10.06c1.54 3.57 3.21 7.11 4.4 10.82.68 2.14 1.98 4.67.75 6.87z" fill="#802d40" data-original="#802d40" style="" class=""/><path id="Shape" d="m10.5 26.658c-.59252497.893164-1.61653795 1.4023732-2.68630314 1.3358135-1.0697652-.0665596-2.02275982-.6987763-2.50000002-1.6585s-.40622184-2.1011495.18630316-2.9943135c.586-.883 3.027-2.344 4.711-3.282.3267226-.1821324.7277765-.1666926 1.0395293.0400199.3117529.2067126.4820737.5701316.4414707.9419801-.209 1.917-.606 4.734-1.192 5.617z" fill="#1589ca" data-original="#9fc9d3" style="" class=""/><path id="Shape" d="m47.5 26.658c.592525.893164 1.6165379 1.4023733 2.6863032 1.3358136 1.0697652-.0665597 2.0227598-.6987763 2.5-1.6585s.4062218-2.1011496-.1863032-2.9943136c-.586-.883-3.027-2.344-4.711-3.282-.3267226-.1821324-.7277765-.1666926-1.0395293.0400199-.3117529.2067126-.4820737.5701316-.4414707.9419801.209 1.917.606 4.734 1.192 5.617z" fill="#1589ca" data-original="#9fc9d3" style="" class=""/><path id="Shape" d="m12.081 59c-.9778983-.0015659-1.9518867-.1234824-2.9-.363-2.52875543-.5957119-4.70445111-2.1984948-6.023-4.437-2.147-3.819-.788-7.628.023-9.9.12-.336.229-.64.323-.935.16789457-.5263274.73067264-.8168945 1.25699999-.649.52632736.1678946.81689456.7306726.64900001 1.257-.1.316-.218.642-.336.973-.8 2.232-1.873 5.253-.173 8.278 1.04929913 1.7590956 2.77042004 3.0143654 4.766 3.476 3.2644819.802992 6.7136994-.0967384 9.17-2.392.534-.475 1.034-.92 1.525-1.326.4255354-.3520815 1.0559185-.2925354 1.408.133s.2925354 1.0559185-.133 1.408c-.474.392-.955.82-1.461 1.271-2.2052831 2.0389017-5.0916984 3.1820576-8.095 3.206z" fill="#f42b37" data-original="#a56a43" style="" class=""/><path id="Shape" d="m45.919 59c-2.9995536-.0236759-5.8825707-1.1646176-8.086-3.2-.515-.459-1-.887-1.47-1.279-.2752732-.2277568-.4081292-.5850693-.3485226-.9373412.0596066-.352272.3026202-.6459849.6375-.7705.3348798-.1245152.7107495-.0609156.9860226.1668412.491.406.991.851 1.515 1.317 2.4568556 2.3016452 5.9110288 3.204697 9.18 2.4 1.9966429-.4623412 3.7182795-1.7191685 4.767-3.48 1.7-3.025.623-6.046-.164-8.252-.127-.357-.244-.683-.345-1-.1086088-.3404741-.0273266-.7130272.2132283-.9773222.2405548-.264295.6038364-.3801792.953-.304.3491636.0761791.631163.3328481.7397717.6733222.094.3.2.6.313.908.821 2.3 2.18 6.112.033 9.931-1.3174819 2.2392078-3.4924634 3.8430806-6.021 4.44-.9490447.2400991-1.9240563.3623534-2.903.364z" fill="#f42b37" data-original="#a56a43" style="" class=""/><path id="Shape" d="m45.91 35.38c-2.125516-1.1530915-4.3196184-2.1750022-6.57-3.06l-2.21 4.42c-.1840246.3651286-.5717982.5814437-.9791589.5462125s-.7522375-.3149106-.8708411-.7062125l-1.82-6.07h-.01c-1.4623183-.3197575-2.9532554-.490629-4.45-.51-1.4967446.019371-2.9876817.1902425-4.45.51h-.01l-1.82 6.07c-.1186036.3913019-.4634804.6709813-.8708411.7062125s-.7951343-.1810839-.9791589-.5462125l-2.21-4.42c-2.2503816.8849978-4.444484 1.9069085-6.57 3.06l.57-1.32c4.34-10.06 16.34-10.06 16.34-10.06s12 0 16.34 10.06z" fill="#ecf0f1" data-original="#ecf0f1" style="" class=""/><path id="Shape" d="m38 44c-.0335833 1.6792134-.7569214 3.2705572-2 4.4l-.06-.03c-2.2051931-.8800865-4.5664823-1.3019883-6.94-1.24-2.3735177-.0619883-4.7348069.3599135-6.94 1.24l-.06.03c-1.2430786-1.1294428-1.9664167-2.7207866-2-4.4 0-3.87 4.03-7 9-7s9 3.13 9 7z" fill="#ff5364" data-original="#ff5364" style="" class=""/><path id="Shape" d="m49.08 53.17c-.4548944.2816256-.9508207.4907917-1.47.62-2.2947479.5692743-4.7211887-.0760156-6.43-1.71-1.529421-1.5180061-3.3001378-2.7717006-5.24-3.71-2.2051931-.8800865-4.5664823-1.3019883-6.94-1.24-2.3735177-.0619883-4.7348069.3599135-6.94 1.24-1.9398622.9382994-3.710579 2.1919939-5.24 3.71-1.7088113 1.6339844-4.1352521 2.2792743-6.43 1.71-.51917928-.1292083-1.01510556-.3383744-1.47-.62 1.351513-2.3416528 3.1128386-4.4213719 5.2-6.14l.63-5c.0481845-.3787115.3077878-.6969456.6691022-.8202176.3613145-.123272.7612899-.0300706 1.0308978.2402176l2.57 2.57c3.1440547-1.3788953 6.5471941-2.0677071 9.98-2.02 3.4328059-.0477071 6.8359453.6411047 9.98 2.02l2.57-2.57c.2696079-.2702882.6695833-.3634896 1.0308978-.2402176.3613144.123272.6209177.4415061.6691022.8202176l.63 5c2.0871614 1.7186281 3.848487 3.7983472 5.2 6.14z" fill="#ecf0f1" data-original="#ecf0f1" style="" class=""/></g></g></g></svg>
